<?xml version="1.0" encoding="UTF-8"?> <svg xmlns="http://www.w3.org/2000/svg" xmlns:xlink="http://www.w3.org/1999/xlink" id="Layer_1" data-name="Layer 1" viewBox="0 0 150 140"><defs><style>.cls-1{fill:url(#linear-gradient);}.cls-2{fill:url(#linear-gradient-2);}.cls-3{fill:url(#linear-gradient-3);}.cls-4{fill:#eae629;}.cls-5{fill:url(#linear-gradient-4);}.cls-6{fill:url(#linear-gradient-5);}.cls-7{fill:#00703c;}.cls-8{fill:#bbd171;}</style><linearGradient id="linear-gradient" x1="74.93" y1="153.26" x2="74.93" y2="127.96" gradientUnits="userSpaceOnUse"><stop offset="0.29" stop-color="#eae629"></stop><stop offset="1" stop-color="#00703c"></stop></linearGradient><linearGradient id="linear-gradient-2" x1="74.93" y1="153.26" x2="74.93" y2="127.96" xlink:href="#linear-gradient"></linearGradient><linearGradient id="linear-gradient-3" x1="75.11" y1="139" x2="75.11" y2="98.99" xlink:href="#linear-gradient"></linearGradient><linearGradient id="linear-gradient-4" x1="75.11" y1="-2.26" x2="75.11" y2="47.87" gradientUnits="userSpaceOnUse"><stop offset="0.48" stop-color="#fff"></stop><stop offset="1" stop-color="#eae629"></stop></linearGradient><linearGradient id="linear-gradient-5" x1="75.11" y1="146.48" x2="75.11" y2="78.22" gradientUnits="userSpaceOnUse"><stop offset="0.74" stop-color="#fff"></stop><stop offset="1" stop-color="#eae629"></stop></linearGradient></defs><path class="cls-1" d="M111.05,125c0,7.9-16.17,14.3-36.12,14.3S38.81,132.9,38.81,125,55,110.7,74.93,110.7,111.05,117.1,111.05,125Z"></path><path class="cls-2" d="M146.68,68.76s-21.82,56.73-48,65H51.18c-26.19-8.24-48-65-48-65"></path><path class="cls-3" d="M148.58,57.07c0,31-32.89,56.07-73.47,56.07S1.64,88,1.64,57.07,34.53,1,75.11,1,148.58,26.1,148.58,57.07Z"></path><ellipse class="cls-4" cx="75.11" cy="56.66" rx="61.02" ry="46.57"></ellipse><path class="cls-5" d="M118.64,33.75c0,11.71-19.49,21.2-43.53,21.2s-43.53-9.49-43.53-21.2,19.49-21.2,43.53-21.2S118.64,22,118.64,33.75Z"></path><path class="cls-6" d="M118.64,79.57c0-11.71-19.49-21.21-43.53-21.21s-43.53,9.5-43.53,21.21,19.49,21.19,43.53,21.19S118.64,91.27,118.64,79.57Z"></path><path class="cls-7" d="M100.91,71.61c1.28,0,2.34.42,2.94.42s1.33-.55,1.33-1c0-1.11-2.3-1.39-3.4-1.39-4.77,0-9.45,1.25-14.13,1.91a10.79,10.79,0,0,1,.19-1.25,9.66,9.66,0,0,0,.59-1.87c0-.59-.69-1-1.42-1-2.06,0-2,3.43-2.11,4.47a62.82,62.82,0,0,1-8.17.63c-2.79,0-8.48-.35-8.48-3.23A2.76,2.76,0,0,1,68.57,68a1,1,0,0,0,.55.14c1,0,1.28-1.25,1.28-1.8a1.19,1.19,0,0,0-1.24-1.29c-2.1,0-3.43,3.23-3.43,4.51,0,4.09,5.73,4.68,10,4.68a71,71,0,0,0,8.95-.62,78.46,78.46,0,0,0-.69,9.91,46.63,46.63,0,0,1,0,5c0,.45-.46.76-.46,1.22a1.7,1.7,0,0,0,1.75,1.45A1.38,1.38,0,0,0,86.6,90c0-5.58-.14-11.09.68-16.67C91.73,72.62,96.32,71.61,100.91,71.61Zm15.18,10.64c-1.74,0-2,4.16-5,4.16-1.7,0-2-2-2-3,0-.66.27-1.28.27-1.94a.81.81,0,0,0-.32-.66.85.85,0,0,0,.23-.55c0-1-1.51-1.46-2.61-1.46-3.22,0-6.72,3.11-7.79,5.71a6,6,0,0,1-3.64,1.26,2.58,2.58,0,0,1-2.7-1.7c2.7-.07,5.46-2.11,5.46-4.19,0-1.18-.92-2.08-2.53-2.08a5.72,5.72,0,0,0-5.5,5.51c0,2.22,1.83,4.3,5,4.3a8.46,8.46,0,0,0,3.68-.93,3.92,3.92,0,0,0,3.93,2.38,6.68,6.68,0,0,0,5-2.53,4.15,4.15,0,0,0,3.35,1.6A6.5,6.5,0,0,0,117,83.23V83A.83.83,0,0,0,116.09,82.25Zm-21-2.8c.41,0,.64.62.64.86,0,.94-1.51,2-2.75,2a3.31,3.31,0,0,1-.55-.07C92.51,81.28,93.43,79.45,95,79.45Zm11.51,4.16a4.2,4.2,0,0,1-3.81,3.67c-1.14,0-1.83-.62-1.83-1.46a2.35,2.35,0,0,1,.16-.76,7.45,7.45,0,0,0,1.35-1.52.57.57,0,0,0,.14-.39.64.64,0,0,0-.08-.3,5.61,5.61,0,0,1,3.66-2.16,1.84,1.84,0,0,1,.82.18,2.32,2.32,0,0,0-.55,1.59C106.41,82.84,106.55,83.23,106.55,83.61Z"></path><path class="cls-7" d="M88.86,49.27A2.29,2.29,0,0,0,91,46.91a1.51,1.51,0,0,0-1.36-1.68c-1.4,0-2.08,1.68-2.08,2.84A1.21,1.21,0,0,0,88.86,49.27ZM43.65,57.8a.89.89,0,0,0-.88-.88,1.7,1.7,0,0,0-.44.08,42.67,42.67,0,0,1-15.09,3.21c-1.68,0-8.29-.4-8.29-2.73s4.56-4.56,6.37-5.2a19,19,0,0,1,4.16-1,6.48,6.48,0,0,1,.88,0c1.24,0,2.44.24,3.68.24.68,0,1.45-.36,1.45-1.16,0-1.37-2.29-1.49-3.25-1.49a18.34,18.34,0,0,0-3.32.36c-1.92-.36-9.25-2.12-9.25-4.88,0-.84.84-1.52,1.44-2,2.08-1.52,6.09-2,8.57-2,2.88,0,8.13.72,9.93,3.32a.74.74,0,0,0-.44.68c0,.72.84.88,1.4.88.84,0,2.2-.4,2.2-1.44a1.55,1.55,0,0,0-.32-.84c-2.72-3.65-8.33-4.61-12.57-4.61-3.56,0-12.57,1.08-12.57,5.93,0,3.36,5.12,5.24,7.72,6-3,1.08-8.52,3.88-8.52,7.64,0,4.17,7.36,4.21,10.25,4.21C29.28,62.13,43.65,60.57,43.65,57.8ZM134.91,54c-.4,0-.48.12-.72.44C133,56.08,131.54,58,129.3,58a2.33,2.33,0,0,1-2.36-2h0a5.26,5.26,0,0,0,4.76-4.84,2.18,2.18,0,0,0-2.2-2.41c-3,0-4.8,3.73-4.8,6.37a6.66,6.66,0,0,0,0,.78,7,7,0,0,1-5.18,3,3.77,3.77,0,0,1-3.81-2.7c.09-.22.18-.43.25-.62a2.34,2.34,0,0,0,.08-.52.87.87,0,0,0-.47-.83c.29-1.82,1.66-4.42,3.51-4.42a1.14,1.14,0,0,1,.88.49,6.81,6.81,0,0,0-.52,2.68c0,.8.08,2.32,1.16,2.32,1.44,0,1.81-3,1.81-4a4.33,4.33,0,0,0-.25-1.64c.09-.57-.15-1.21-.84-1.17a3,3,0,0,0-1.8-.72c-3.44,0-6.16,4.41-6.16,7.53a6,6,0,0,0,.09,1c-.76,1.49-1.63,3.2-2.94,3.2-2.56,0,.2-6.93-3.4-6.93-1.37,0-2.65,1.11-3.59,2.11a.87.87,0,0,0-.36-.53c0-1.47-.1-3.7-1.34-3.7a1.26,1.26,0,0,0-1.28,1.28c0,.84.36,1.76.36,2.64,0,.31,0,.91-.1,1.57a5,5,0,0,1-3.7,2,2.3,2.3,0,0,1-2.32-1.81s0-.11.08-.16a5.27,5.27,0,0,0,4.64-4.83,2.18,2.18,0,0,0-2.2-2.41c-3,0-4.81,3.73-4.81,6.37a6,6,0,0,0,.08,1c-.84,1.31-2,2.81-3.16,2.81s-1-1.08-1-1.8a.28.28,0,0,1,0-.09,9.66,9.66,0,0,0,.67-1.59.74.74,0,0,0,.08-.28.79.79,0,0,0-.39-.67,13.53,13.53,0,0,0,.39-2.33,1,1,0,0,0-1-1c-1.7,0-1.9,4.3-1.92,5.87a3,3,0,0,1-2.44,1.73c-1.17,0-1.41-1.24-1.41-2.16a12.35,12.35,0,0,1,.72-3.72,1.77,1.77,0,0,0,.64-1.28,1,1,0,0,0-1-1.13c-1.72,0-1.16,3.17-3.64,3.17-.08,0-.16,0-.28,0a9,9,0,0,0,1.16-3.44,1.1,1.1,0,0,0-1-1.13c-1.44,0-2.48,3.61-2.48,4.77a1.62,1.62,0,0,0,.16.76,2,2,0,0,0-.24.8.69.69,0,0,0,.17.46A5.19,5.19,0,0,1,72.88,58a2.33,2.33,0,0,1-2.36-2,5.27,5.27,0,0,0,4.77-4.84,2.19,2.19,0,0,0-2.21-2.41c-3,0-4.8,3.73-4.8,6.37a1.09,1.09,0,0,0,0,.18c-.49.47-1,1-1.25,1.18a3.84,3.84,0,0,0,.24-1.32c0-2.76-1.32-5.2-4.41-5.2a7.75,7.75,0,0,0-4.76,1.92c0-.84,0-4.29-1.24-4.29a1.32,1.32,0,0,0-1.16,1.24.51.51,0,0,0,0,.24,26.67,26.67,0,0,1,.44,4.69,3.44,3.44,0,0,1,0,.64,15.36,15.36,0,0,0-1.9,4,4.55,4.55,0,0,1-3.07,1.17,4,4,0,0,1-2.8-1.25c.72-1.16,4-6,4-7.12,0-.44-.28-.81-1-.81a1.18,1.18,0,0,0-1,.69c-1.12,2-2.2,3.92-3.4,5.8a5.74,5.74,0,0,1-1.4-2.44c-.29-1-.12-3-1.69-3-.76,0-1.12.76-1.12,1.44,0,1.84,1.64,4.56,2.92,5.84-1.4,2.09-3.24,3.89-4.64,6l-.08.12a1.13,1.13,0,0,0-.16.52,1.09,1.09,0,0,0,1,1.08c.64,0,1.16-.88,1.44-1.36,1.16-1.72,2.49-3.28,3.65-5a6,6,0,0,0,6.67.88,21.67,21.67,0,0,0-.35,3.8c0,1.8.69,7.49,3.09,7.49a1.4,1.4,0,0,0,1.28-1.12c.56-2,.52-9.69.56-12.06a10.08,10.08,0,0,0,3.92.81,11.23,11.23,0,0,0,6.7-2.33,4.14,4.14,0,0,0,3.83,2.53c2.56,0,5.26-2.29,6.45-4.5A4.7,4.7,0,0,0,80.65,55a13.57,13.57,0,0,0-.16,2.2c0,1.89.6,3.73,2.8,3.73a5.05,5.05,0,0,0,3.4-1.54A2.32,2.32,0,0,0,89,60.93a4.3,4.3,0,0,0,2.48-.84,13.84,13.84,0,0,0,1.92-1.89,4.07,4.07,0,0,0,3.49,1.89,6,6,0,0,0,3-.94,1,1,0,0,0-.13.46c0,.64.68.91,1.2.91,1.08,0,3.93-5.8,5.53-5.8.28,0,.36.28.4.48.56,2.36-.44,6.53,3.32,6.53,1.57,0,3.08-1.5,4.2-3.14a5.64,5.64,0,0,0,4.65,2.3,9.66,9.66,0,0,0,6.36-2.9,4.07,4.07,0,0,0,3.61,2.1c2.64,0,5.45-2.45,6.57-4.73a.81.81,0,0,0,.12-.44A.85.85,0,0,0,134.91,54ZM56,69.22a14,14,0,0,1-.8-5.13,16.22,16.22,0,0,1,.65-4.68l.46-.46C56.34,62.36,56.29,65.8,56,69.22ZM61.39,57.8c-.8,0-3-.4-3.2-1.28a1,1,0,0,1,0-.19l.18-.37a1.63,1.63,0,0,0,.2-.72.7.7,0,0,0-.34-.62c.32-1.32,2.93-2.5,4.18-2.5,1.85,0,2.68,1.76,2.68,3.4C65.07,57.4,62.87,57.8,61.39,57.8Zm11.37-7.16c.36,0,.56.72.56,1a2.68,2.68,0,0,1-2.4,2.28,2,2,0,0,1-.48-.08C70.56,52.76,71.36,50.64,72.76,50.64Zm24.27,0c.36,0,.56.72.56,1a2.68,2.68,0,0,1-2.4,2.28,2,2,0,0,1-.48-.08C94.83,52.76,95.63,50.64,97,50.64Zm32.15,0c.36,0,.56.72.56,1a2.68,2.68,0,0,1-2.4,2.28,2,2,0,0,1-.48-.08C127,52.76,127.78,50.64,129.18,50.64Z"></path><path class="cls-7" d="M95.8,15.7a.66.66,0,0,0,.11-.26c0-.2,0-.19-.13-.19a10.34,10.34,0,0,0-1.23.26,7.91,7.91,0,0,1-2.27-.25c-.69-.15-1.4-.22-2.08-.43a11.52,11.52,0,0,1-1.78-.74C85.5,12.58,67.21,9.32,61,30.84c0,0-2.29,7.51-2.92,9a42.84,42.84,0,0,0-1.75,4.34,97.44,97.44,0,0,0-8-11.64s2,3.27,3.76,6.1c1.57,2.49,3.21,9.15,3.62,10.39.22,1.31.23,1.76.47,3.92a2.9,2.9,0,0,1,1-.5,1.53,1.53,0,0,1,.43.13c0-.34,0-.7,0-1,0,0-.85-10,6.33-10.47s20.69-2.27,26.6-9.9l0,0a15.71,15.71,0,0,0,3.48-7.64A8.52,8.52,0,0,0,94,21a5,5,0,0,0-.24-.92,2,2,0,0,1-.19-1,3,3,0,0,1,.23-1.22,4.57,4.57,0,0,1,1.07-1.21c.26-.25.55-.46.78-.73Z"></path><path class="cls-8" d="M83.8,18.85c0-.83.1-3.63,4.42-4,0,0-4.92.11-4.94,4.14a31.72,31.72,0,0,0-5,2.22,8.66,8.66,0,0,1,6-7.21A9.6,9.6,0,0,0,77.7,21.6,41.64,41.64,0,0,0,70.4,27c-.36-1.56-.73-5.57,3.85-8.39,0,0-5.48,2.91-4.39,8.91a52.83,52.83,0,0,0-5.5,6.16c-.61-.78-3-4.3,1-8.46,0,0-4.58,4.24-1.44,9a49.14,49.14,0,0,0-4,6.21,72.78,72.78,0,0,1,6.33-8.18C75.58,34,81.1,29.57,81.1,29.57,74.76,34,66.75,31.8,66.75,31.8l-.08,0a56.24,56.24,0,0,1,7.86-7.17C84,26.5,89.64,22,89.64,22c-6.34,4.45-14.35,2.23-14.35,2.23l-.38.18a44,44,0,0,1,6.88-4.12c2.95,2.59,6.32-.87,6.32-.87-3,2.78-5.11,1.31-5.81.64a27.51,27.51,0,0,1,8.93-2.59A28.78,28.78,0,0,0,83.8,18.85Zm7.43-1.4h0Z"></path></svg> 